<svg width="21" height="21" viewBox="0 0 21 21" fill="none" xmlns="http://www.w3.org/2000/svg">
<path d="M14 9.1875C14 9.912 13.608 10.5 13.125 10.5C12.642 10.5 12.25 9.912 12.25 9.1875C12.25 8.463 12.642 7.875 13.125 7.875C13.608 7.875 14 8.463 14 9.1875Z" fill="#FE2760"/>
<path d="M7.875 10.5C8.35825 10.5 8.75 9.91237 8.75 9.1875C8.75 8.46263 8.35825 7.875 7.875 7.875C7.39175 7.875 7 8.46263 7 9.1875C7 9.91237 7.39175 10.5 7.875 10.5Z" fill="#FE2760"/>
<path d="M19.25 10.7625C19.25 5.78638 15.3326 1.75 10.5 1.75C5.66738 1.75 1.75 5.7855 1.75 10.7625V17.2576C1.75 18.4144 2.93212 19.1669 3.9375 18.6497C4.33497 18.4447 4.78071 18.3515 5.22704 18.3802C5.67338 18.4088 6.10353 18.5583 6.4715 18.8125C6.88395 19.0977 7.37352 19.2505 7.875 19.2505C8.37648 19.2505 8.86605 19.0977 9.2785 18.8125L9.58737 18.6007C9.85586 18.416 10.1741 18.3171 10.5 18.3171C10.8259 18.3171 11.1441 18.416 11.4126 18.6007L11.7215 18.8125C12.134 19.0977 12.6235 19.2505 13.125 19.2505C13.6265 19.2505 14.116 19.0977 14.5285 18.8125C14.8966 18.5581 15.3269 18.4086 15.7734 18.3799C16.2199 18.3512 16.6658 18.4445 17.0634 18.6497C18.0679 19.1669 19.25 18.4144 19.25 17.2576V14.0105" stroke="#FE2760" stroke-width="1.5" stroke-linecap="round"/>
</svg>
