<svg width="18" height="18" viewBox="0 0 18 18" fill="none" xmlns="http://www.w3.org/2000/svg">
<g clip-path="url(#clip0_1582_84)">
<path d="M15.5625 0.337524C16.0598 0.337524 16.5367 0.535068 16.8883 0.886699C17.24 1.23833 17.4375 1.71524 17.4375 2.21252V15.3375C17.4375 15.8348 17.24 16.3117 16.8883 16.6633C16.5367 17.015 16.0598 17.2125 15.5625 17.2125H2.4375C1.94022 17.2125 1.46331 17.015 1.11167 16.6633C0.760044 16.3117 0.5625 15.8348 0.5625 15.3375V2.21252C0.5625 1.71524 0.760044 1.23833 1.11167 0.886699C1.46331 0.535068 1.94022 0.337524 2.4375 0.337524H15.5625ZM15.0938 14.8688V9.90002C15.0938 9.08946 14.7718 8.31209 14.1986 7.73893C13.6254 7.16577 12.8481 6.84377 12.0375 6.84377C11.2406 6.84377 10.3125 7.33127 9.8625 8.06252V7.0219H7.24688V14.8688H9.8625V10.2469C9.8625 9.52502 10.4438 8.9344 11.1656 8.9344C11.5137 8.9344 11.8476 9.07268 12.0937 9.31882C12.3398 9.56496 12.4781 9.8988 12.4781 10.2469V14.8688H15.0938ZM4.2 5.55002C4.61772 5.55002 5.01832 5.38409 5.31369 5.08872C5.60906 4.79335 5.775 4.39274 5.775 3.97502C5.775 3.10315 5.07188 2.39065 4.2 2.39065C3.7798 2.39065 3.37681 2.55757 3.07968 2.8547C2.78255 3.15183 2.61563 3.55482 2.61563 3.97502C2.61563 4.8469 3.32813 5.55002 4.2 5.55002ZM5.50313 14.8688V7.0219H2.90625V14.8688H5.50313Z" fill="#84BAFF"/>
</g>
<defs>
<clipPath id="clip0_1582_84">
<rect width="18" height="18" fill="white"/>
</clipPath>
</defs>
</svg>
