<svg width="21" height="22" viewBox="0 0 21 22" fill="none" xmlns="http://www.w3.org/2000/svg">
<path d="M16.625 3.42505C17.0891 3.42505 17.5342 3.60942 17.8624 3.93761C18.1906 4.2658 18.375 4.71092 18.375 5.17505V17.425C18.375 17.8892 18.1906 18.3343 17.8624 18.6625C17.5342 18.9907 17.0891 19.175 16.625 19.175H4.375C3.91087 19.175 3.46575 18.9907 3.13756 18.6625C2.80937 18.3343 2.625 17.8892 2.625 17.425V5.17505C2.625 4.71092 2.80937 4.2658 3.13756 3.93761C3.46575 3.60942 3.91087 3.42505 4.375 3.42505H16.625ZM16.1875 16.9875V12.35C16.1875 11.5935 15.887 10.868 15.352 10.333C14.8171 9.79808 14.0915 9.49755 13.335 9.49755C12.5912 9.49755 11.725 9.95255 11.305 10.635V9.6638H8.86375V16.9875H11.305V12.6738C11.305 12 11.8475 11.4488 12.5213 11.4488C12.8461 11.4488 13.1577 11.5779 13.3875 11.8076C13.6172 12.0373 13.7463 12.3489 13.7463 12.6738V16.9875H16.1875ZM6.02 8.29005C6.40987 8.29005 6.78377 8.13517 7.05945 7.8595C7.33513 7.58382 7.49 7.20992 7.49 6.82005C7.49 6.0063 6.83375 5.3413 6.02 5.3413C5.62781 5.3413 5.25169 5.4971 4.97437 5.77441C4.69705 6.05173 4.54125 6.42786 4.54125 6.82005C4.54125 7.6338 5.20625 8.29005 6.02 8.29005ZM7.23625 16.9875V9.6638H4.8125V16.9875H7.23625Z" fill="#84BAFF"/>
</svg>
