<svg width="18" height="18" viewBox="0 0 18 18" fill="none" xmlns="http://www.w3.org/2000/svg">
<path d="M8.23125 2.25149C8.27515 2.44543 8.24025 2.64886 8.1342 2.81707C8.02816 2.98527 7.85966 3.10449 7.66575 3.14849C6.4186 3.43286 5.29497 4.10836 4.45883 5.07641C3.6227 6.04447 3.11784 7.25441 3.01791 8.52966C2.91799 9.80492 3.22824 11.0787 3.90339 12.1652C4.57854 13.2517 5.58325 14.0939 6.77089 14.5691C7.95854 15.0442 9.26695 15.1274 10.5052 14.8064C11.7434 14.4854 12.8467 13.7771 13.6539 12.7848C14.4611 11.7925 14.9301 10.5683 14.9925 9.29061C15.0548 8.01297 14.7071 6.74885 14.0002 5.68274C13.9457 5.6007 13.9079 5.50872 13.8889 5.41206C13.87 5.3154 13.8702 5.21595 13.8897 5.11939C13.929 4.92438 14.0442 4.75297 14.2099 4.64287C14.3756 4.53277 14.5782 4.493 14.7732 4.53232C14.8698 4.55178 14.9616 4.59007 15.0433 4.64501C15.1251 4.69995 15.1952 4.77045 15.2498 4.85249C16.067 6.08116 16.5021 7.52435 16.5 8.99999C16.5 13.1422 13.1422 16.5 9 16.5C4.85775 16.5 1.5 13.1422 1.5 8.99999C1.5 5.42999 3.99375 2.44349 7.33425 1.68599C7.52819 1.64209 7.73162 1.67699 7.89982 1.78304C8.06803 1.88908 8.18724 2.05758 8.23125 2.25149ZM9.75 2.26049C9.74991 2.14799 9.77488 2.03687 9.8231 1.93522C9.87132 1.83357 9.94158 1.74394 10.0288 1.67283C10.116 1.60173 10.2179 1.55094 10.3272 1.52416C10.4364 1.49737 10.5503 1.49527 10.6605 1.51799L10.7468 1.54124L12.987 2.28824C13.169 2.34839 13.3211 2.47594 13.412 2.64469C13.5029 2.81345 13.5257 3.0106 13.4758 3.19567C13.4259 3.38073 13.307 3.53966 13.1436 3.63982C12.9801 3.73998 12.7846 3.77377 12.597 3.73424L12.513 3.71174L11.25 3.29024V8.99999C11.2498 9.47118 11.1016 9.93041 10.8265 10.3129C10.5513 10.6954 10.163 10.9819 9.7163 11.1319C9.26963 11.2819 8.78713 11.2879 8.33687 11.149C7.88661 11.0101 7.49131 10.7334 7.20672 10.3578C6.92214 9.9823 6.76264 9.52689 6.75072 9.05585C6.7388 8.58481 6.87506 8.12191 7.14028 7.73246C7.40551 7.343 7.7863 7.04663 8.22897 6.88516C8.67163 6.72369 9.15381 6.70527 9.6075 6.83249L9.75 6.87749V2.26124V2.26049Z" fill="url(#paint0_linear_5_12)"/>
<defs>
<linearGradient id="paint0_linear_5_12" x1="9" y1="1.50238" x2="9" y2="16.5" gradientUnits="userSpaceOnUse">
<stop stop-color="#FFFCFC"/>
<stop offset="1" stop-color="#D5D5D5"/>
</linearGradient>
</defs>
</svg>
