<svg width="18" height="19" viewBox="0 0 18 19" fill="none" xmlns="http://www.w3.org/2000/svg">
<g clip-path="url(#clip0_1547_127)">
<path d="M10.1123 0.800086C9.9764 0.804595 9.84277 0.835942 9.71907 0.892321C9.59537 0.9487 9.48405 1.029 9.39152 1.12859L5.33702 5.46959L2.44652 8.56409C2.02555 9.01232 1.71505 9.55267 1.53977 10.1421C1.50221 10.2687 1.47092 10.3971 1.44602 10.5268C1.33364 11.1138 1.3495 11.7181 1.49252 12.2983C1.55609 12.5601 1.64371 12.8154 1.75427 13.0611C1.98355 13.5714 2.30694 14.034 2.70752 14.4246L5.91527 17.5693L5.94452 17.5978C7.63052 19.2216 10.3335 19.1976 11.9918 17.5423L13.7888 15.7483C14.1938 15.3433 14.1938 14.6878 13.791 14.2821C13.6952 14.1857 13.5812 14.1092 13.4558 14.0569C13.3303 14.0047 13.1958 13.9776 13.0599 13.9774C12.9239 13.9772 12.7893 14.0038 12.6637 14.0557C12.5381 14.1076 12.4239 14.1838 12.3278 14.2798L10.5308 16.0738C10.1118 16.4874 9.54832 16.7216 8.95967 16.7269C8.37102 16.7322 7.8034 16.5082 7.37702 16.1023L7.36202 16.0881L4.15502 12.9433C3.66602 12.4633 3.42602 11.8416 3.44402 11.2461C3.44759 11.114 3.46417 10.9826 3.49352 10.8538C3.5689 10.5271 3.72903 10.226 3.95777 9.98084L6.84752 6.88559C7.64102 6.03509 9.25052 5.93309 10.17 6.67709L12.7958 8.80034C13.2405 9.16034 13.8915 9.09059 14.2508 8.64509C14.423 8.43108 14.5033 8.15753 14.4742 7.88438C14.4451 7.61124 14.309 7.36076 14.0955 7.18784L11.4705 5.06459C10.8705 4.57934 10.146 4.28084 9.39002 4.16309L10.9013 2.54459C11.0406 2.3948 11.1325 2.20719 11.1656 2.00532C11.1986 1.80344 11.1712 1.59631 11.0869 1.40993C11.0027 1.22355 10.8652 1.06623 10.6918 0.957734C10.5183 0.849233 10.3167 0.794388 10.1123 0.800086ZM7.96277 10.4113C7.82673 10.4113 7.69202 10.4382 7.56635 10.4903C7.44068 10.5424 7.32651 10.6187 7.23038 10.715C7.13426 10.8113 7.05805 10.9256 7.00612 11.0513C6.9542 11.177 6.92757 11.3118 6.92777 11.4478C6.92757 11.5839 6.9542 11.7186 7.00612 11.8444C7.05805 11.9701 7.13426 12.0844 7.23038 12.1807C7.32651 12.2769 7.44068 12.3533 7.56635 12.4054C7.69202 12.4575 7.82673 12.4843 7.96277 12.4843H15.5925C15.7286 12.4843 15.8633 12.4575 15.9889 12.4054C16.1146 12.3533 16.2288 12.2769 16.3249 12.1807C16.421 12.0844 16.4972 11.9701 16.5492 11.8444C16.6011 11.7186 16.6277 11.5839 16.6275 11.4478C16.6277 11.3118 16.6011 11.177 16.5492 11.0513C16.4972 10.9256 16.421 10.8113 16.3249 10.715C16.2288 10.6187 16.1146 10.5424 15.9889 10.4903C15.8633 10.4382 15.7286 10.4113 15.5925 10.4113H7.96277Z" fill="#FFB068"/>
</g>
<defs>
<clipPath id="clip0_1547_127">
<rect width="18" height="18" fill="white" transform="translate(0 0.800049)"/>
</clipPath>
</defs>
</svg>
