<svg width="18" height="18" viewBox="0 0 18 18" fill="none" xmlns="http://www.w3.org/2000/svg">
<path d="M9 4.12499L8.595 4.51499C8.64747 4.56943 8.71038 4.61273 8.77997 4.64231C8.84955 4.67189 8.92439 4.68713 9 4.68713C9.07561 4.68713 9.15045 4.67189 9.22003 4.64231C9.28962 4.61273 9.35253 4.56943 9.405 4.51499L9 4.12499ZM5.25075 12.315C5.13538 12.2201 4.98705 12.1749 4.83838 12.1894C4.68971 12.2039 4.55288 12.2769 4.458 12.3922C4.36312 12.5076 4.31795 12.6559 4.33244 12.8046C4.34693 12.9533 4.41988 13.0901 4.53525 13.185L5.25075 12.315ZM1.7565 10.0582C1.79196 10.123 1.83983 10.1802 1.89739 10.2265C1.95495 10.2728 2.02106 10.3074 2.09196 10.3281C2.16286 10.3489 2.23715 10.3555 2.31059 10.3475C2.38404 10.3395 2.45519 10.3172 2.52 10.2817C2.58481 10.2463 2.642 10.1984 2.6883 10.1408C2.73461 10.0833 2.76912 10.0172 2.78988 9.94628C2.81063 9.87538 2.81722 9.80109 2.80926 9.72765C2.8013 9.6542 2.77896 9.58305 2.7435 9.51824L1.7565 10.0582ZM2.0625 6.85274C2.0625 5.24024 2.97375 3.88724 4.218 3.31799C5.427 2.76524 7.0515 2.91149 8.595 4.51499L9.405 3.73574C7.575 1.83299 5.448 1.51874 3.75 2.29499C2.0895 3.05474 0.9375 4.81874 0.9375 6.85274H2.0625ZM6.37275 14.625C6.7575 14.928 7.17 15.2505 7.58775 15.495C8.0055 15.7395 8.4825 15.9375 9 15.9375V14.8125C8.7675 14.8125 8.4945 14.7225 8.1555 14.5237C7.81575 14.3257 7.464 14.0527 7.0695 13.7415L6.37275 14.625ZM11.6273 14.625C12.6968 13.7812 14.0648 12.8152 15.1373 11.607C16.23 10.377 17.0625 8.85224 17.0625 6.85274H15.9375C15.9375 8.50124 15.2625 9.77099 14.2965 10.86C13.3103 11.97 12.0675 12.8452 10.9305 13.7415L11.6273 14.625ZM17.0625 6.85274C17.0625 4.81874 15.9112 3.05474 14.25 2.29499C12.552 1.51874 10.4265 1.83299 8.595 3.73499L9.405 4.51499C10.9485 2.91224 12.573 2.76524 13.782 3.31799C15.0262 3.88724 15.9375 5.23949 15.9375 6.85274H17.0625ZM10.9305 13.7415C10.536 14.0527 10.1843 14.3257 9.8445 14.5237C9.50475 14.7217 9.2325 14.8125 9 14.8125V15.9375C9.5175 15.9375 9.9945 15.7387 10.4123 15.495C10.8308 15.2505 11.2425 14.928 11.6273 14.625L10.9305 13.7415ZM7.0695 13.7415C6.4725 13.2712 5.86575 12.8212 5.25075 12.315L4.53525 13.185C5.15775 13.6972 5.81625 14.1862 6.37275 14.625L7.0695 13.7415ZM2.7435 9.51899C2.29164 8.70333 2.05713 7.78518 2.0625 6.85274H0.9375C0.9375 8.08124 1.2525 9.13649 1.7565 10.0582L2.7435 9.51899Z" fill="url(#paint0_linear_5_10)"/>
<defs>
<linearGradient id="paint0_linear_5_10" x1="9" y1="1.90063" x2="9" y2="15.9375" gradientUnits="userSpaceOnUse">
<stop stop-color="#FFFCFC"/>
<stop offset="1" stop-color="#D5D5D5"/>
</linearGradient>
</defs>
</svg>
