<svg width="18" height="18" viewBox="0 0 18 18" fill="none" xmlns="http://www.w3.org/2000/svg">
<path d="M7.3125 2.39062H3.9375C3.67643 2.39062 3.42605 2.49433 3.24144 2.67894C3.05684 2.86354 2.95313 3.11392 2.95312 3.375V14.625C2.95313 14.8861 3.05684 15.1364 3.24144 15.3211C3.42605 15.5057 3.67643 15.6094 3.9375 15.6094H7.3125C7.44177 15.6094 7.56977 15.5839 7.6892 15.5344C7.80863 15.485 7.91715 15.4125 8.00856 15.3211C8.09997 15.2296 8.17247 15.1211 8.22194 15.0017C8.27141 14.8823 8.29688 14.7543 8.29688 14.625V3.375C8.29688 3.24573 8.27141 3.11772 8.22194 2.99829C8.17247 2.87886 8.09997 2.77035 8.00856 2.67894C7.91715 2.58753 7.80863 2.51502 7.6892 2.46555C7.56977 2.41608 7.44177 2.39062 7.3125 2.39062ZM3.79688 5.48437H7.45312V12.5156H3.79688V5.48437ZM3.9375 3.23437H7.3125C7.3498 3.23437 7.38556 3.24919 7.41194 3.27556C7.43831 3.30193 7.45312 3.3377 7.45312 3.375V4.64062H3.79688V3.375C3.79688 3.3377 3.81169 3.30193 3.83806 3.27556C3.86444 3.24919 3.9002 3.23437 3.9375 3.23437ZM7.3125 14.7656H3.9375C3.9002 14.7656 3.86444 14.7508 3.83806 14.7244C3.81169 14.6981 3.79688 14.6623 3.79688 14.625V13.3594H7.45312V14.625C7.45312 14.6623 7.43831 14.6981 7.41194 14.7244C7.38556 14.7508 7.3498 14.7656 7.3125 14.7656ZM16.1508 13.7109L13.8171 2.61281C13.7908 2.48576 13.7396 2.36517 13.6665 2.25797C13.5934 2.15078 13.4998 2.0591 13.3911 1.9882C13.2824 1.9173 13.1608 1.86858 13.0333 1.84485C12.9057 1.82112 12.7747 1.82284 12.6478 1.84992L9.35648 2.55726C9.10176 2.61325 8.87939 2.76743 8.73762 2.98633C8.59585 3.20524 8.54612 3.47122 8.59922 3.72656L10.9329 14.8226C10.9594 14.9501 11.011 15.071 11.0846 15.1784C11.1583 15.2859 11.2525 15.3776 11.3618 15.4484C11.52 15.5519 11.705 15.6071 11.8941 15.6073C11.965 15.6076 12.0357 15.6001 12.105 15.5848L15.3963 14.8781C15.6501 14.8215 15.8714 14.6674 16.0126 14.449C16.1537 14.2307 16.2033 13.9656 16.1508 13.7109ZM10.3282 7.8525L13.8952 7.08609L14.888 11.8083L11.3203 12.5726L10.3282 7.8525ZM9.86203 5.63343L13.4297 4.86492L13.7215 6.25781L10.1545 7.02421L9.86203 5.63343ZM9.53438 3.38343L12.825 2.67679C12.8348 2.67576 12.8447 2.67576 12.8545 2.67679C12.8808 2.67687 12.9065 2.68469 12.9284 2.69929C12.9445 2.70958 12.9584 2.72305 12.9692 2.73889C12.9799 2.75473 12.9873 2.7726 12.9909 2.7914L13.2546 4.04437L9.68836 4.80515L9.42539 3.555C9.41718 3.51763 9.424 3.47853 9.4444 3.44616C9.4648 3.41378 9.49712 3.39075 9.53438 3.38203V3.38343ZM15.2163 14.0569L11.925 14.7656C11.9074 14.7695 11.8892 14.7699 11.8714 14.7666C11.8536 14.7633 11.8367 14.7566 11.8216 14.7466C11.8055 14.7364 11.7916 14.7229 11.7808 14.707C11.7701 14.6912 11.7627 14.6733 11.7591 14.6545L11.4954 13.4016L15.0616 12.6352L15.3281 13.8818C15.3323 13.9005 15.3326 13.9199 15.3292 13.9388C15.3259 13.9577 15.3188 13.9758 15.3084 13.9919C15.298 14.008 15.2845 14.022 15.2687 14.0329C15.2529 14.0438 15.2351 14.0515 15.2163 14.0555V14.0569Z" fill="url(#paint0_linear_5_16)"/>
<defs>
<linearGradient id="paint0_linear_5_16" x1="9.56218" y1="1.82825" x2="9.56218" y2="15.6094" gradientUnits="userSpaceOnUse">
<stop stop-color="#FFFCFC"/>
<stop offset="1" stop-color="#D5D5D5"/>
</linearGradient>
</defs>
</svg>
