<svg width="438" height="503" viewBox="0 0 438 503" fill="none" xmlns="http://www.w3.org/2000/svg">
<path fill-rule="evenodd" clip-rule="evenodd" d="M68.375 1.076L63.267 1.93L55.375 4.434L47.482 6.937L40.989 10.712L34.497 14.488L26.972 21.988L19.448 29.488L15.131 36.804L10.814 44.121L7.83099 51.304L4.84799 58.488L2.424 67.474L0 76.46L2.29999 78.76L4.59999 81.06L8.39 75.557L12.18 70.054L19.45 63.148L26.721 56.242L33.513 52.898L40.306 49.554L48.894 49.659L57.482 49.763L75.982 53.964L94.482 58.164L102.482 59.574L110.482 60.985L118.101 60.987L125.72 60.988L134.601 59.467L143.482 57.946L151.982 55.232L160.482 52.518L170.945 47.299L181.407 42.08L181.801 42.474L182.195 42.868L179.02 46.178L175.844 49.488L166.042 62.488L156.24 75.488L151.453 82.988L146.666 90.488L140.931 101.988L135.197 113.488L131.608 124.663L128.018 135.839L126.597 144.163L125.175 152.488L124.52 160.488L123.865 168.488L124.909 189.919L125.953 211.35L125.617 211.687L125.28 212.023L118.881 210.374L112.482 208.726L99.982 209.325L87.482 209.925L82.113 211.397L76.745 212.87L71.356 215.596L65.968 218.322L60.6 223.95L55.232 229.577L53.107 233.743L50.982 237.908V238.198L50.983 238.488L68.732 238.517L86.482 238.547L92.982 240.86L99.482 243.173L106.207 247.641L112.932 252.109L117.405 257.222L121.878 262.335L124.977 268.63L128.077 274.926L129.575 282.11L131.073 289.295L130.777 294.891L130.482 300.488L128.482 300.367L126.482 300.246L119.482 299.004L112.482 297.763L102.482 297.726L92.482 297.69L86.482 299.988L80.482 302.286L75.123 305.695L69.764 309.103L70.152 309.491L70.54 309.879L78.511 311.522L86.482 313.164L93.982 316.059L101.482 318.954L106.516 322.352L111.55 325.75L116.319 330.588L121.089 335.427L124.549 342.457L128.008 349.488L129.478 356.488L130.947 363.488L130.965 371.424L130.982 379.36L129.337 385.924L127.692 392.488L124.937 399.26L122.182 406.032L117.888 413.538L113.593 421.044L105.549 431.766L97.504 442.488L84.988 454.988L72.471 467.488L61.805 476.315L51.14 485.141L53.117 488.493L55.095 491.845L63.788 487.814L72.482 483.783L88.482 477.498L104.482 471.213L117.232 467.087L129.983 462.96L143.892 459.545L157.8 456.13L170.141 454.089L182.482 452.049L196.982 450.926L211.482 449.804L221.482 450.426L231.482 451.049L240.982 452.095L250.482 453.142L262.222 455.6L273.962 458.058L285.722 462.06L297.482 466.063L311.482 472.921L325.482 479.779L334.982 486.01L344.482 492.241L350.759 497.153L357.036 502.064L388.749 471.776L420.462 441.488L428.972 433.299L437.482 425.109L432.565 420.095L427.649 415.081L421.565 419.909L415.482 424.737L410.536 427.862L405.59 430.988H402.246H398.902L394.958 428.976L391.014 426.964L381.248 420.572L371.482 414.181L360.982 408.636L350.482 403.09L339.982 399.585L329.482 396.079L320.482 394.506L311.482 392.934L299.468 392.318L287.454 391.703L273.968 392.928L260.482 394.153L247.482 396.544L234.482 398.934L220.309 402.428L206.135 405.923L194.545 409.365L182.955 412.807L182.007 411.034L181.058 409.261L190.27 402.388L199.482 395.514L209.982 386.532L220.482 377.55L229.982 368L239.482 358.451L247.559 348.4L255.637 338.35L261.482 328.919L267.326 319.488L271.618 310.448L275.91 301.408L279.874 289.448L283.837 277.488L286.372 265.988L288.908 254.488L290.427 242.819L291.947 231.15L293.078 211.819L294.208 192.488L293.684 166.488L293.159 140.488L290.487 117.988L287.814 95.488L288.307 80.488L288.8 65.488L290.959 58.004L293.119 50.521L296.756 43.504L300.394 36.488L307.938 28.903L315.482 21.318L322.315 17.521L329.148 13.723L337.815 10.946L346.482 8.16799L351.286 7.456L356.089 6.745L355.786 4.616L355.482 2.488L342.748 2.714L330.014 2.94L319.748 4.463L309.482 5.986L299.982 8.603L290.482 11.221L280.482 15.952L270.482 20.683L263.309 26.332L256.136 31.982L250.081 40.017L244.026 48.053L240.566 55.27L237.105 62.488L234.493 70.488L231.882 78.488L229.804 89.988L227.727 101.488L227.772 121.988L227.818 142.488L228.954 166.488L230.091 190.488L231.052 202.988L232.013 215.488L232.623 240.988L233.232 266.488L231.553 280.988L229.873 295.488L227.409 306.454L224.945 317.421L221.35 327.954L217.755 338.488L213.421 347.772L209.086 357.057L202.716 366.772L196.346 376.488L188.469 385.988L180.592 395.488L169.037 406.988L157.482 418.488L145.482 428.827L133.482 439.165L131.205 440.25L128.928 441.334L127.929 440.335L126.931 439.337L136.29 424.398L145.649 409.459L151.923 398.59L158.197 387.721L165.51 373.105L172.823 358.488L176.83 346.836L180.838 335.185L183.375 323.836L185.912 312.488L187.697 299.988L189.482 287.488L189.321 250.988L189.161 214.488L188.037 198.988L186.913 183.488L184.947 163.606L182.982 143.723V129.928V116.133L184.049 108.31L185.117 100.488L187.526 90.988L189.935 81.488L192.031 75.988L194.128 70.488L198.571 61.638L203.014 52.789L207.329 46.138L211.645 39.488L217.699 31.988L223.754 24.488L233.333 15.228L242.912 5.969L242.34 4.478L241.768 2.988H241.473H241.178L230.83 7.389L220.482 11.79L213.982 13.777L207.482 15.765L199.711 17.017L191.94 18.269L181.211 17.702L170.482 17.136L156.982 13.687L143.482 10.238L130.982 6.557L118.482 2.877L108.982 1.438L99.482 0L86.482 0.111L73.482 0.222L68.375 1.076Z" fill="white"/>
</svg>
