<svg width="1920" height="2160" viewBox="0 0 1920 2160" fill="none" xmlns="http://www.w3.org/2000/svg">
<g clip-path="url(#clip0_1549_76)">
<g clip-path="url(#clip1_1549_76)">
<mask id="mask0_1549_76" style="mask-type:luminance" maskUnits="userSpaceOnUse" x="0" y="0" width="1920" height="2160">
<path d="M1920 0H0V2160H1920V0Z" fill="white"/>
</mask>
<g mask="url(#mask0_1549_76)">
<g opacity="0.75">
<path d="M333.09 -95.9393C188.292 208.32 16.4262 793.501 487.351 700.146C958.276 606.791 1099.74 871.172 1111.61 1015.03C1154.01 1353.28 1323.4 1912.68 1661.69 1444.3C1999.98 975.913 1636.88 420.835 1413.05 201.844C1286.03 96.9586 1122.27 58.1489 1483.32 741.996C1934.64 1596.81 2846.35 435.458 1999.25 1619.55" stroke="#68ABFF"/>
<path d="M239.943 -4.51282C95.1449 299.747 -76.72 884.928 394.205 791.573C865.129 698.217 1006.59 962.598 1018.46 1106.46C1060.87 1444.71 1230.25 2004.11 1568.54 1535.72C1906.83 1067.34 1543.74 512.262 1319.9 293.271C1192.89 188.385 1029.12 149.575 1390.18 833.423C1841.49 1688.23 2753.2 526.885 1906.11 1710.98" stroke="#F45282"/>
<path d="M328.654 -91.5864C183.856 212.673 11.9909 797.854 482.916 704.499C953.84 611.144 1095.3 875.525 1107.17 1019.38C1149.58 1357.63 1318.96 1917.03 1657.25 1448.65C1995.54 980.266 1632.45 425.188 1408.61 206.197C1281.6 101.312 1117.83 62.5019 1478.89 746.349C1930.21 1601.16 2841.91 439.811 1994.82 1623.9" stroke="#6FA7F9"/>
<path d="M324.217 -87.2311C179.418 217.029 7.55353 802.209 478.478 708.854C949.403 615.499 1090.87 879.88 1102.73 1023.74C1145.14 1361.99 1314.53 1921.39 1652.82 1453C1991.1 984.622 1628.01 429.544 1404.18 210.553C1277.16 105.667 1113.39 66.8571 1474.45 750.704C1925.77 1605.51 2837.47 444.166 1990.38 1628.26" stroke="#75A3F3"/>
<path d="M319.783 -82.8785C174.985 221.381 3.11972 806.562 474.045 713.207C944.969 619.852 1086.43 884.233 1098.3 1028.09C1140.71 1366.34 1310.09 1925.74 1648.38 1457.36C1986.67 988.974 1623.58 433.896 1399.74 214.905C1272.73 110.02 1108.96 71.2097 1470.02 755.057C1921.33 1609.87 2833.04 448.519 1985.95 1632.61" stroke="#7C9EED"/>
<path d="M315.347 -78.5239C170.549 225.736 -1.31555 810.917 469.609 717.562C940.534 624.206 1082 888.587 1093.86 1032.45C1136.27 1370.7 1305.66 1930.09 1643.95 1461.71C1982.23 993.329 1619.14 438.251 1395.31 219.26C1268.29 114.374 1104.53 75.5644 1465.58 759.412C1916.9 1614.22 2828.6 452.873 1981.51 1636.97" stroke="#839AE7"/>
<path d="M310.912 -74.1729C166.114 230.087 -5.75131 815.268 465.173 721.913C936.098 628.557 1077.56 892.938 1089.43 1036.8C1131.84 1375.05 1301.22 1934.45 1639.51 1466.06C1977.8 997.68 1614.7 442.602 1390.87 223.611C1263.86 118.725 1100.09 79.9153 1461.14 763.763C1912.46 1618.57 2824.17 457.224 1977.07 1641.32" stroke="#8996E1"/>
<path d="M306.476 -69.8169C161.678 234.443 -10.1867 819.624 460.738 726.269C931.662 632.913 1073.13 897.294 1084.99 1041.15C1127.4 1379.4 1296.79 1938.8 1635.07 1470.42C1973.36 1002.04 1610.27 446.958 1386.44 227.967C1259.42 123.081 1095.65 84.2713 1456.71 768.119C1908.03 1622.93 2819.73 461.58 1972.64 1645.67" stroke="#9092DB"/>
<path d="M302.039 -65.4635C157.241 238.796 -14.6244 823.977 456.3 730.622C927.225 637.267 1068.69 901.648 1080.55 1045.51C1122.96 1383.76 1292.35 1943.16 1630.64 1474.77C1968.93 1006.39 1605.83 451.311 1382 232.32C1254.98 127.434 1091.22 88.6247 1452.27 772.472C1903.59 1627.28 2815.29 465.934 1968.2 1650.03" stroke="#978DD5"/>
<path d="M297.607 -61.1122C152.809 243.148 -19.0559 828.328 451.869 734.973C922.793 641.618 1064.26 905.999 1076.12 1049.86C1118.53 1388.11 1287.92 1947.51 1626.21 1479.12C1964.49 1010.74 1601.4 455.663 1377.57 236.672C1250.55 131.786 1086.78 92.976 1447.84 776.823C1899.16 1631.63 2810.86 470.285 1963.77 1654.38" stroke="#9D89CF"/>
<path d="M293.172 -56.7573C148.374 247.503 -23.4917 832.683 447.433 739.328C918.358 645.973 1059.82 910.354 1071.69 1054.21C1114.09 1392.46 1283.48 1951.86 1621.77 1483.48C1960.06 1015.1 1596.96 460.018 1373.13 241.027C1246.12 136.141 1082.35 97.331 1443.4 781.178C1894.72 1635.99 2806.43 474.64 1959.33 1658.73" stroke="#A485CA"/>
<path d="M288.734 -52.4023C143.936 251.858 -27.929 837.038 442.996 743.683C913.92 650.328 1055.38 914.709 1067.25 1058.57C1109.66 1396.82 1279.04 1956.22 1617.33 1487.83C1955.62 1019.45 1592.53 464.373 1368.69 245.382C1241.68 140.496 1077.91 101.686 1438.97 785.533C1890.29 1640.34 2801.99 478.995 1954.9 1663.09" stroke="#AB81C4"/>
<path d="M284.299 -48.0505C139.5 256.209 -32.3644 841.39 438.56 748.035C909.485 654.68 1050.95 919.061 1062.81 1062.92C1105.22 1401.17 1274.61 1960.57 1612.9 1492.19C1951.19 1023.8 1588.09 468.724 1364.26 249.733C1237.24 144.848 1073.48 106.038 1434.53 789.885C1885.85 1644.69 2797.55 483.347 1950.46 1667.44" stroke="#B17DBE"/>
<path d="M279.865 -43.6963C135.067 260.564 -36.7982 845.744 434.127 752.389C905.051 659.034 1046.51 923.415 1058.38 1067.27C1100.79 1405.52 1270.18 1964.92 1608.46 1496.54C1946.75 1028.16 1583.66 473.079 1359.82 254.088C1232.81 149.202 1069.04 110.392 1430.1 794.239C1881.42 1649.05 2793.12 487.701 1946.03 1671.79" stroke="#B878B8"/>
<path d="M275.429 -39.3428C130.631 264.917 -41.2335 850.098 429.691 756.743C900.616 663.387 1042.08 927.768 1053.94 1071.63C1096.35 1409.88 1265.74 1969.28 1604.03 1500.89C1942.32 1032.51 1579.22 477.432 1355.39 258.441C1228.37 153.555 1064.61 114.745 1425.66 798.593C1876.98 1653.4 2788.69 492.054 1941.59 1676.15" stroke="#BF74B2"/>
<path d="M270.992 -34.9897C126.194 269.27 -45.6712 854.451 425.253 761.096C896.178 667.741 1037.64 932.122 1049.51 1075.98C1091.92 1414.23 1261.3 1973.63 1599.59 1505.25C1937.88 1036.86 1574.78 481.785 1350.95 262.794C1223.94 157.908 1060.17 119.099 1421.22 802.946C1872.54 1657.76 2784.25 496.408 1937.15 1680.5" stroke="#C570AC"/>
<path d="M266.558 -30.6354C121.76 273.624 -50.1047 858.805 420.82 765.45C891.745 672.095 1033.21 936.476 1045.07 1080.34C1087.48 1418.58 1256.87 1977.98 1595.16 1509.6C1933.45 1041.22 1570.35 486.14 1346.52 267.148C1219.5 162.263 1055.74 123.453 1416.79 807.3C1868.11 1662.11 2779.81 500.762 1932.72 1684.86" stroke="#CC6CA6"/>
<path d="M262.121 -26.2819C117.323 277.978 -54.5423 863.159 416.382 769.804C887.307 676.448 1028.77 940.829 1040.64 1084.69C1083.04 1422.94 1252.43 1982.34 1590.72 1513.95C1929.01 1045.57 1565.91 490.493 1342.08 271.502C1215.06 166.616 1051.3 127.806 1412.35 811.654C1863.67 1666.46 2775.38 505.115 1928.28 1689.21" stroke="#D368A0"/>
<path d="M257.685 -21.9269C112.887 282.333 -58.9777 867.514 411.947 774.158C882.871 680.803 1024.33 945.184 1036.2 1089.04C1078.61 1427.29 1248 1986.69 1586.28 1518.31C1924.57 1049.93 1561.48 494.848 1337.64 275.857C1210.63 170.971 1046.86 132.161 1407.92 816.009C1859.24 1670.82 2770.94 509.47 1923.85 1693.56" stroke="#D9639A"/>
<path d="M253.25 -17.5741C108.452 286.686 -63.4135 871.866 407.511 778.511C878.436 685.156 1019.9 949.537 1031.77 1093.4C1074.17 1431.64 1243.56 1991.04 1581.85 1522.66C1920.14 1054.28 1557.04 499.201 1333.21 280.21C1206.19 175.324 1042.43 136.514 1403.48 820.361C1854.8 1675.17 2766.51 513.823 1919.41 1697.92" stroke="#E05F94"/>
<path d="M248.816 -13.2211C104.018 291.039 -67.847 876.22 403.078 782.864C874.002 689.509 1015.47 953.89 1027.33 1097.75C1069.74 1436 1239.13 1995.4 1577.41 1527.01C1915.7 1058.63 1552.61 503.554 1328.78 284.563C1201.76 179.677 1037.99 140.867 1399.05 824.715C1850.37 1679.52 2762.07 518.176 1914.98 1702.27" stroke="#E75B8E"/>
<path d="M244.381 -8.86755C99.5824 295.392 -72.2825 880.573 398.642 787.218C869.567 693.863 1011.03 958.244 1022.9 1102.1C1065.3 1440.35 1234.69 1999.75 1572.98 1531.37C1911.27 1062.99 1548.17 507.907 1324.34 288.916C1197.32 184.03 1033.56 145.221 1394.61 829.068C1845.93 1683.88 2757.64 522.53 1910.54 1706.62" stroke="#ED5788"/>
</g>
<g opacity="0.75">
<path d="M333.09 -95.9393C188.292 208.32 16.4262 793.501 487.351 700.146C958.276 606.791 1099.74 871.172 1111.61 1015.03C1154.01 1353.28 1323.4 1912.68 1661.69 1444.3C1999.98 975.913 1636.88 420.835 1413.05 201.844C1286.03 96.9586 1122.27 58.1489 1483.32 741.996C1934.64 1596.81 2846.35 435.458 1999.25 1619.55" stroke="#68ABFF"/>
<path d="M239.943 -4.51282C95.1449 299.747 -76.72 884.928 394.205 791.573C865.129 698.217 1006.59 962.598 1018.46 1106.46C1060.87 1444.71 1230.25 2004.11 1568.54 1535.72C1906.83 1067.34 1543.74 512.262 1319.9 293.271C1192.89 188.385 1029.12 149.575 1390.18 833.423C1841.49 1688.23 2753.2 526.885 1906.11 1710.98" stroke="#F45282"/>
<path d="M328.654 -91.5864C183.856 212.673 11.9909 797.854 482.916 704.499C953.84 611.144 1095.3 875.525 1107.17 1019.38C1149.58 1357.63 1318.96 1917.03 1657.25 1448.65C1995.54 980.266 1632.45 425.188 1408.61 206.197C1281.6 101.312 1117.83 62.5019 1478.89 746.349C1930.21 1601.16 2841.91 439.811 1994.82 1623.9" stroke="#6FA7F9"/>
<path d="M324.217 -87.2311C179.418 217.029 7.55353 802.209 478.478 708.854C949.403 615.499 1090.87 879.88 1102.73 1023.74C1145.14 1361.99 1314.53 1921.39 1652.82 1453C1991.1 984.622 1628.01 429.544 1404.18 210.553C1277.16 105.667 1113.39 66.8571 1474.45 750.704C1925.77 1605.51 2837.47 444.166 1990.38 1628.26" stroke="#75A3F3"/>
<path d="M319.783 -82.8785C174.985 221.381 3.11972 806.562 474.045 713.207C944.969 619.852 1086.43 884.233 1098.3 1028.09C1140.71 1366.34 1310.09 1925.74 1648.38 1457.36C1986.67 988.974 1623.58 433.896 1399.74 214.905C1272.73 110.02 1108.96 71.2097 1470.02 755.057C1921.33 1609.87 2833.04 448.519 1985.95 1632.61" stroke="#7C9EED"/>
<path d="M315.347 -78.5239C170.549 225.736 -1.31555 810.917 469.609 717.562C940.534 624.206 1082 888.587 1093.86 1032.45C1136.27 1370.7 1305.66 1930.09 1643.95 1461.71C1982.23 993.329 1619.14 438.251 1395.31 219.26C1268.29 114.374 1104.53 75.5644 1465.58 759.412C1916.9 1614.22 2828.6 452.873 1981.51 1636.97" stroke="#839AE7"/>
<path d="M310.912 -74.1729C166.114 230.087 -5.75131 815.268 465.173 721.913C936.098 628.557 1077.56 892.938 1089.43 1036.8C1131.84 1375.05 1301.22 1934.45 1639.51 1466.06C1977.8 997.68 1614.7 442.602 1390.87 223.611C1263.86 118.725 1100.09 79.9153 1461.14 763.763C1912.46 1618.57 2824.17 457.224 1977.07 1641.32" stroke="#8996E1"/>
<path d="M306.476 -69.8169C161.678 234.443 -10.1867 819.624 460.738 726.269C931.662 632.913 1073.13 897.294 1084.99 1041.15C1127.4 1379.4 1296.79 1938.8 1635.07 1470.42C1973.36 1002.04 1610.27 446.958 1386.44 227.967C1259.42 123.081 1095.65 84.2713 1456.71 768.119C1908.03 1622.93 2819.73 461.58 1972.64 1645.67" stroke="#9092DB"/>
<path d="M302.039 -65.4635C157.241 238.796 -14.6244 823.977 456.3 730.622C927.225 637.267 1068.69 901.648 1080.55 1045.51C1122.96 1383.76 1292.35 1943.16 1630.64 1474.77C1968.93 1006.39 1605.83 451.311 1382 232.32C1254.98 127.434 1091.22 88.6247 1452.27 772.472C1903.59 1627.28 2815.29 465.934 1968.2 1650.03" stroke="#978DD5"/>
<path d="M297.607 -61.1122C152.809 243.148 -19.0559 828.328 451.869 734.973C922.793 641.618 1064.26 905.999 1076.12 1049.86C1118.53 1388.11 1287.92 1947.51 1626.21 1479.12C1964.49 1010.74 1601.4 455.663 1377.57 236.672C1250.55 131.786 1086.78 92.976 1447.84 776.823C1899.16 1631.63 2810.86 470.285 1963.77 1654.38" stroke="#9D89CF"/>
<path d="M293.172 -56.7573C148.374 247.503 -23.4917 832.683 447.433 739.328C918.358 645.973 1059.82 910.354 1071.69 1054.21C1114.09 1392.46 1283.48 1951.86 1621.77 1483.48C1960.06 1015.1 1596.96 460.018 1373.13 241.027C1246.12 136.141 1082.35 97.331 1443.4 781.178C1894.72 1635.99 2806.43 474.64 1959.33 1658.73" stroke="#A485CA"/>
<path d="M288.734 -52.4023C143.936 251.858 -27.929 837.038 442.996 743.683C913.92 650.328 1055.38 914.709 1067.25 1058.57C1109.66 1396.82 1279.04 1956.22 1617.33 1487.83C1955.62 1019.45 1592.53 464.373 1368.69 245.382C1241.68 140.496 1077.91 101.686 1438.97 785.533C1890.29 1640.34 2801.99 478.995 1954.9 1663.09" stroke="#AB81C4"/>
<path d="M284.299 -48.0505C139.5 256.209 -32.3644 841.39 438.56 748.035C909.485 654.68 1050.95 919.061 1062.81 1062.92C1105.22 1401.17 1274.61 1960.57 1612.9 1492.19C1951.19 1023.8 1588.09 468.724 1364.26 249.733C1237.24 144.848 1073.48 106.038 1434.53 789.885C1885.85 1644.69 2797.55 483.347 1950.46 1667.44" stroke="#B17DBE"/>
<path d="M279.865 -43.6963C135.067 260.564 -36.7982 845.744 434.127 752.389C905.051 659.034 1046.51 923.415 1058.38 1067.27C1100.79 1405.52 1270.18 1964.92 1608.46 1496.54C1946.75 1028.16 1583.66 473.079 1359.82 254.088C1232.81 149.202 1069.04 110.392 1430.1 794.239C1881.42 1649.05 2793.12 487.701 1946.03 1671.79" stroke="#B878B8"/>
<path d="M275.429 -39.3428C130.631 264.917 -41.2335 850.098 429.691 756.743C900.616 663.387 1042.08 927.768 1053.94 1071.63C1096.35 1409.88 1265.74 1969.28 1604.03 1500.89C1942.32 1032.51 1579.22 477.432 1355.39 258.441C1228.37 153.555 1064.61 114.745 1425.66 798.593C1876.98 1653.4 2788.69 492.054 1941.59 1676.15" stroke="#BF74B2"/>
<path d="M270.992 -34.9897C126.194 269.27 -45.6712 854.451 425.253 761.096C896.178 667.741 1037.64 932.122 1049.51 1075.98C1091.92 1414.23 1261.3 1973.63 1599.59 1505.25C1937.88 1036.86 1574.78 481.785 1350.95 262.794C1223.94 157.908 1060.17 119.099 1421.22 802.946C1872.54 1657.76 2784.25 496.408 1937.15 1680.5" stroke="#C570AC"/>
<path d="M266.558 -30.6354C121.76 273.624 -50.1047 858.805 420.82 765.45C891.745 672.095 1033.21 936.476 1045.07 1080.34C1087.48 1418.58 1256.87 1977.98 1595.16 1509.6C1933.45 1041.22 1570.35 486.14 1346.52 267.148C1219.5 162.263 1055.74 123.453 1416.79 807.3C1868.11 1662.11 2779.81 500.762 1932.72 1684.86" stroke="#CC6CA6"/>
<path d="M262.121 -26.2819C117.323 277.978 -54.5423 863.159 416.382 769.804C887.307 676.448 1028.77 940.829 1040.64 1084.69C1083.04 1422.94 1252.43 1982.34 1590.72 1513.95C1929.01 1045.57 1565.91 490.493 1342.08 271.502C1215.06 166.616 1051.3 127.806 1412.35 811.654C1863.67 1666.46 2775.38 505.115 1928.28 1689.21" stroke="#D368A0"/>
<path d="M257.685 -21.9269C112.887 282.333 -58.9777 867.514 411.947 774.158C882.871 680.803 1024.33 945.184 1036.2 1089.04C1078.61 1427.29 1248 1986.69 1586.28 1518.31C1924.57 1049.93 1561.48 494.848 1337.64 275.857C1210.63 170.971 1046.86 132.161 1407.92 816.009C1859.24 1670.82 2770.94 509.47 1923.85 1693.56" stroke="#D9639A"/>
<path d="M253.25 -17.5741C108.452 286.686 -63.4135 871.866 407.511 778.511C878.436 685.156 1019.9 949.537 1031.77 1093.4C1074.17 1431.64 1243.56 1991.04 1581.85 1522.66C1920.14 1054.28 1557.04 499.201 1333.21 280.21C1206.19 175.324 1042.43 136.514 1403.48 820.361C1854.8 1675.17 2766.51 513.823 1919.41 1697.92" stroke="#E05F94"/>
<path d="M248.816 -13.2211C104.018 291.039 -67.847 876.22 403.078 782.864C874.002 689.509 1015.47 953.89 1027.33 1097.75C1069.74 1436 1239.13 1995.4 1577.41 1527.01C1915.7 1058.63 1552.61 503.554 1328.78 284.563C1201.76 179.677 1037.99 140.867 1399.05 824.715C1850.37 1679.52 2762.07 518.176 1914.98 1702.27" stroke="#E75B8E"/>
<path d="M244.381 -8.86755C99.5824 295.392 -72.2825 880.573 398.642 787.218C869.567 693.863 1011.03 958.244 1022.9 1102.1C1065.3 1440.35 1234.69 1999.75 1572.98 1531.37C1911.27 1062.99 1548.17 507.907 1324.34 288.916C1197.32 184.03 1033.56 145.221 1394.61 829.068C1845.93 1683.88 2757.64 522.53 1910.54 1706.62" stroke="#ED5788"/>
</g>
</g>
</g>
<g filter="url(#filter0_b_1549_76)">
<rect width="1920" height="2160" fill="white" fill-opacity="0.02"/>
</g>
</g>
<defs>
<filter id="filter0_b_1549_76" x="-40" y="-40" width="2000" height="2240" filterUnits="userSpaceOnUse" color-interpolation-filters="sRGB">
<feFlood flood-opacity="0" result="BackgroundImageFix"/>
<feGaussianBlur in="BackgroundImageFix" stdDeviation="20"/>
<feComposite in2="SourceAlpha" operator="in" result="effect1_backgroundBlur_1549_76"/>
<feBlend mode="normal" in="SourceGraphic" in2="effect1_backgroundBlur_1549_76" result="shape"/>
</filter>
<clipPath id="clip0_1549_76">
<rect width="1920" height="2160" fill="white"/>
</clipPath>
<clipPath id="clip1_1549_76">
<rect width="1920" height="2160" fill="white"/>
</clipPath>
</defs>
</svg>
