<svg width="18" height="18" viewBox="0 0 18 18" fill="none" xmlns="http://www.w3.org/2000/svg">
<path d="M6.66376 14.6685C5.62126 14.3185 4.70201 13.7763 3.90601 13.0418C3.10951 12.3078 2.60076 11.4125 2.37976 10.356C2.35126 10.201 2.38476 10.0613 2.48026 9.93675C2.57576 9.81225 2.70076 9.75 2.85526 9.75H3.75001V4.10775C3.75001 3.95875 3.80051 3.8275 3.90151 3.714C4.00251 3.6005 4.12751 3.536 4.27651 3.5205L15.3765 2.2965C15.484 2.281 15.5733 2.30775 15.6443 2.37675C15.7148 2.44625 15.75 2.53475 15.75 2.64225C15.75 2.72225 15.7193 2.79375 15.6578 2.85675C15.5963 2.91975 15.5255 2.95725 15.4455 2.96925L7.81726 3.8025V5.3805H15.4185C15.5135 5.3805 15.5925 5.412 15.6555 5.475C15.7185 5.538 15.75 5.61725 15.75 5.71275C15.75 5.80825 15.7185 5.88725 15.6555 5.94975C15.5925 6.01225 15.5135 6.04375 15.4185 6.04425H7.81726V9.75H15.1448C15.2993 9.75 15.4268 9.81225 15.5273 9.93675C15.6273 10.0613 15.663 10.201 15.6345 10.356C15.4135 11.4225 14.9025 12.325 14.1015 13.0635C13.3005 13.8025 12.3693 14.3375 11.3078 14.6685V15.144C11.3078 15.318 11.2503 15.4625 11.1353 15.5775C11.0203 15.6925 10.8758 15.75 10.7018 15.75H7.26901C7.09501 15.75 6.95076 15.6925 6.83626 15.5775C6.72126 15.4625 6.66376 15.318 6.66376 15.144V14.6685ZM6.11551 5.37975H7.15426V3.87525L6.11551 3.99375V5.37975ZM4.41301 5.37975H5.45251V4.06725L4.41451 4.17075L4.41301 5.37975ZM6.11626 9.75H7.15501V6.0435H6.11476L6.11626 9.75ZM4.41376 9.75H5.45251V6.0435H4.41301L4.41376 9.75ZM7.41376 15H10.5585V14.1465L10.977 14.0018C11.855 13.7403 12.6358 13.309 13.3193 12.708C14.0028 12.107 14.4948 11.371 14.7953 10.5H3.20476C3.49626 11.371 3.98376 12.1078 4.66726 12.7103C5.35126 13.3128 6.12726 13.7433 6.99526 14.0018L7.41376 14.1458V15Z" fill="url(#paint0_linear_5_8)"/>
<defs>
<linearGradient id="paint0_linear_5_8" x1="9.05997" y1="2.29224" x2="9.05997" y2="15.75" gradientUnits="userSpaceOnUse">
<stop stop-color="#FFFCFC"/>
<stop offset="1" stop-color="#D5D5D5"/>
</linearGradient>
</defs>
</svg>
