<svg width="18" height="19" viewBox="0 0 18 19" fill="none" xmlns="http://www.w3.org/2000/svg">
<g clip-path="url(#clip0_1547_104)">
<path fill-rule="evenodd" clip-rule="evenodd" d="M9 0.800049C4.0275 0.800049 0 4.82755 0 9.80005C0 13.7825 2.57625 17.1463 6.15375 18.3388C6.60375 18.4175 6.7725 18.1475 6.7725 17.9113C6.7725 17.6975 6.76125 16.9888 6.76125 16.235C4.5 16.6513 3.915 15.6838 3.735 15.1775C3.63375 14.9188 3.195 14.12 2.8125 13.9063C2.4975 13.7375 2.0475 13.3213 2.80125 13.31C3.51 13.2988 4.01625 13.9625 4.185 14.2325C4.995 15.5938 6.28875 15.2113 6.80625 14.975C6.885 14.39 7.12125 13.9963 7.38 13.7713C5.3775 13.5463 3.285 12.77 3.285 9.32755C3.285 8.3488 3.63375 7.5388 4.2075 6.9088C4.1175 6.6838 3.8025 5.7613 4.2975 4.5238C4.2975 4.5238 5.05125 4.28755 6.7725 5.4463C7.4925 5.2438 8.2575 5.14255 9.0225 5.14255C9.7875 5.14255 10.5525 5.2438 11.2725 5.4463C12.9937 4.2763 13.7475 4.5238 13.7475 4.5238C14.2425 5.7613 13.9275 6.6838 13.8375 6.9088C14.4113 7.5388 14.76 8.33755 14.76 9.32755C14.76 12.7813 12.6562 13.5463 10.6537 13.7713C10.98 14.0525 11.2613 14.5925 11.2613 15.4363C11.2613 16.64 11.25 17.6075 11.25 17.9113C11.25 18.1475 11.4187 18.4288 11.8687 18.3388C13.6554 17.7356 15.2079 16.5873 16.3077 15.0556C17.4076 13.5238 17.9995 11.6858 18 9.80005C18 4.82755 13.9725 0.800049 9 0.800049Z" fill="#FFDAE9"/>
</g>
<defs>
<clipPath id="clip0_1547_104">
<rect width="18" height="18" fill="white" transform="translate(0 0.800049)"/>
</clipPath>
</defs>
</svg>
